<svg width="10" height="10" viewBox="0 0 10 10" fill="none" xmlns="http://www.w3.org/2000/svg">
<path d="M9.64717 2.21097C9.90104 2.28619 10.0517 2.57475 9.98367 2.85548C9.91564 3.13621 9.6547 3.30281 9.40084 3.22759L9.20786 3.17041C10.0164 5.43598 9.2252 8.07507 7.26041 9.3295C5.95865 10.1606 4.43829 10.1939 3.16354 9.56855C2.9233 9.45069 2.81495 9.13978 2.92153 8.87412C3.02811 8.60846 3.30927 8.48864 3.54951 8.6065C4.55814 9.10133 5.75737 9.07382 6.78454 8.41802C8.28639 7.45916 8.91964 5.47553 8.37904 3.72698L8.33518 3.90796C8.26716 4.18869 8.00622 4.35529 7.75236 4.28007C7.49849 4.20485 7.34784 3.91629 7.41586 3.63556L7.76423 2.19784C7.83225 1.91711 8.09319 1.75052 8.34705 1.82574L9.64717 2.21097Z" fill="#FF4500"/>
<path d="M6.83644 0.43145C7.07668 0.549311 7.18503 0.860218 7.07845 1.12588C6.97187 1.39155 6.69072 1.51136 6.45048 1.3935C5.44184 0.89867 4.24261 0.926182 3.21545 1.58198C1.71359 2.54084 1.08034 4.52449 1.62096 6.27305L1.66482 6.09203C1.73284 5.8113 1.99378 5.6447 2.24764 5.71992C2.50151 5.79514 2.65216 6.0837 2.58414 6.36443L2.23577 7.80215C2.16775 8.08288 1.90681 8.24948 1.65295 8.17425L0.352828 7.78902C0.0989648 7.7138 -0.0516894 7.42524 0.0163332 7.14451C0.0843563 6.86378 0.345296 6.69718 0.599161 6.7724L0.792122 6.82958C-0.0163675 4.564 0.774786 1.92493 2.73957 0.670505C4.04133 -0.160608 5.56169 -0.193937 6.83644 0.43145Z" fill="#FF4500"/>
</svg>
